<svg id="Layer_1" data-name="Layer 1" xmlns="http://www.w3.org/2000/svg" xmlns:xlink="http://www.w3.org/1999/xlink" viewBox="0 0 141.79 52.27"><defs><style>.cls-1{fill:none;}.cls-2{fill:#515151;}.cls-3{fill:#dda526;}.cls-4{clip-path:url(#clip-path);}.cls-5{clip-path:url(#clip-path-2);}</style><clipPath id="clip-path" transform="translate(-12.66 -11.21)"><rect class="cls-1" x="118.88" y="1" width="38.5" height="15.4"/></clipPath><clipPath id="clip-path-2" transform="translate(-12.66 -11.21)"><rect class="cls-1" x="125.13" y="10.74" width="20.54" height="9.14"/></clipPath></defs><title>HeatX_Logo</title><path class="cls-2" d="M39.53,53.87H36.16V33.45h-20V53.87H12.78V11.21h3.34V30.34h20V11.21h3.37Z" transform="translate(-12.66 -11.21)"/><path class="cls-2" d="M59.66,54.46a10.94,10.94,0,0,1-8.76-3.67q-3.16-3.66-3.22-10.43V36.5q0-7,3-10.95a10,10,0,0,1,8.37-4c3.44,0,6.06,1.13,7.87,3.37s2.73,5.69,2.77,10.32v3H50.9V40.1c0,3.63.78,6.44,2.33,8.41a7.9,7.9,0,0,0,6.58,3A9.47,9.47,0,0,0,67.4,48l1.69,2.17Q66,54.46,59.66,54.46ZM59.1,24.63a7,7,0,0,0-5.9,2.71c-1.38,1.81-2.13,4.45-2.27,7.93H66.49v-.85Q66.25,24.63,59.1,24.63Z" transform="translate(-12.66 -11.21)"/><path class="cls-2" d="M93.65,53.87a20.92,20.92,0,0,1-.59-4.39,10.4,10.4,0,0,1-3.76,3.67,10,10,0,0,1-5,1.31,8.57,8.57,0,0,1-6.38-2.32,9,9,0,0,1-2.29-6.59,9.2,9.2,0,0,1,3.18-7.38c2.12-1.82,5-2.74,8.78-2.76H93V31c0-2.27-.57-3.89-1.69-4.88a7.31,7.31,0,0,0-4.94-1.48,7.09,7.09,0,0,0-5,1.76,5.85,5.85,0,0,0-1.93,4.54l-3.25,0a8.65,8.65,0,0,1,2.93-6.61,10.43,10.43,0,0,1,7.35-2.71c3.18,0,5.6.81,7.24,2.41s2.46,3.93,2.46,7V46.55a21.38,21.38,0,0,0,.85,7v.35Zm-8.94-2.55a8.93,8.93,0,0,0,5.09-1.49,8.81,8.81,0,0,0,3.24-4v-7.7H87.88q-4.45.06-6.71,2a6.44,6.44,0,0,0-2.26,5.17C78.91,49.31,80.85,51.32,84.71,51.32Z" transform="translate(-12.66 -11.21)"/><path class="cls-2" d="M110.27,14.08v8.09h5.42V25.1h-5.42V46.16a7.75,7.75,0,0,0,.77,3.89,2.81,2.81,0,0,0,2.6,1.27A14.46,14.46,0,0,0,116,51l.09,2.93a8.11,8.11,0,0,1-3.19.5q-5.72,0-5.86-7.86V25.1h-4.9V22.17H107V14.08Z" transform="translate(-12.66 -11.21)"/><path class="cls-3" d="M136.25,28.66l9-15.76h8.43L140.56,34.05l13.62,21.51h-8.55l-9.26-16-9.26,16h-8.44l13.42-21.51L119,12.9h8.38Z" transform="translate(-12.66 -11.21)"/><rect class="cls-3" x="105.79" y="46.87" width="36" height="5.4"/><path class="cls-3" d="M15.45,63h-.54V61H13.2v2h-.54V58.7h.54v1.83h1.71V58.7h.54Z" transform="translate(-12.66 -11.21)"/><path class="cls-3" d="M18.07,61H16.56v1.52h1.76V63H16V58.7h2.26v.46H16.56v1.37h1.51Z" transform="translate(-12.66 -11.21)"/><path class="cls-3" d="M20.64,61.85H19.2L18.87,63h-.55l1.37-4.27h.46L21.53,63H21Zm-1.3-.46H20.5l-.58-1.94Z" transform="translate(-12.66 -11.21)"/><path class="cls-3" d="M23.87,59.16H22.75V63h-.54V59.16H21.09V58.7h2.78Z" transform="translate(-12.66 -11.21)"/><path class="cls-3" d="M27.09,61H25.58v1.52h1.76V63H25.05V58.7h2.26v.46H25.58v1.37h1.51Z" transform="translate(-12.66 -11.21)"/><path class="cls-3" d="M28.87,60.33l.8-1.63h.63l-1.11,2.12L30.33,63h-.64l-.82-1.67L28.05,63h-.64l1.14-2.15L27.44,58.7h.62Z" transform="translate(-12.66 -11.21)"/><path class="cls-3" d="M33.3,61.61a1.52,1.52,0,0,1-.39,1,1.3,1.3,0,0,1-1,.36,1.23,1.23,0,0,1-1-.48,2.08,2.08,0,0,1-.38-1.33v-.77a2.07,2.07,0,0,1,.39-1.32A1.28,1.28,0,0,1,32,58.64a1.2,1.2,0,0,1,.95.37,1.61,1.61,0,0,1,.37,1.06h-.54a1.42,1.42,0,0,0-.22-.75A.72.72,0,0,0,32,59.1a.79.79,0,0,0-.68.34,1.83,1.83,0,0,0-.23,1v.79a1.82,1.82,0,0,0,.22,1,.7.7,0,0,0,.64.34.76.76,0,0,0,.6-.2,1.35,1.35,0,0,0,.23-.75Z" transform="translate(-12.66 -11.21)"/><path class="cls-3" d="M36.46,63h-.54V61H34.21v2h-.54V58.7h.54v1.83h1.71V58.7h.54Z" transform="translate(-12.66 -11.21)"/><path class="cls-3" d="M39.08,61.85H37.64L37.31,63h-.55l1.37-4.27h.46L40,63h-.55Zm-1.3-.46h1.16l-.58-1.94Z" transform="translate(-12.66 -11.21)"/><path class="cls-3" d="M43,63h-.54l-1.71-3.29V63h-.54V58.7h.54L42.45,62V58.7H43Z" transform="translate(-12.66 -11.21)"/><path class="cls-3" d="M46.22,62.44l-.09.11A1.45,1.45,0,0,1,45,63a1.37,1.37,0,0,1-1.09-.45,2,2,0,0,1-.4-1.3v-.84a2.1,2.1,0,0,1,.36-1.34,1.28,1.28,0,0,1,1.07-.45,1.26,1.26,0,0,1,1,.34,1.41,1.41,0,0,1,.38,1h-.53a1.09,1.09,0,0,0-.22-.62.72.72,0,0,0-.58-.23.77.77,0,0,0-.67.3,1.7,1.7,0,0,0-.22,1v.87a1.72,1.72,0,0,0,.24,1,.82.82,0,0,0,.71.34.93.93,0,0,0,.66-.21l.08-.07v-1h-.78v-.46h1.31Z" transform="translate(-12.66 -11.21)"/><path class="cls-3" d="M48.79,61H47.28v1.52H49V63H46.75V58.7H49v.46H47.28v1.37h1.51Z" transform="translate(-12.66 -11.21)"/><path class="cls-3" d="M50.66,61.24h-.75V63h-.54V58.7h1.2a1.29,1.29,0,0,1,1,.33,1.31,1.31,0,0,1,.32.95,1.27,1.27,0,0,1-.18.69,1.07,1.07,0,0,1-.49.45L52,62.93v0h-.58Zm-.75-.46h.65a.69.69,0,0,0,.54-.22.83.83,0,0,0,.2-.58c0-.55-.25-.82-.74-.82h-.65Z" transform="translate(-12.66 -11.21)"/><path class="cls-3" d="M53.76,61.3V63h-.54V58.7h1.36a1.24,1.24,0,0,1,.94.36,1.32,1.32,0,0,1,.34.94,1.29,1.29,0,0,1-.33,1,1.26,1.26,0,0,1-.91.35Zm0-.46h.82a.71.71,0,0,0,.55-.22.88.88,0,0,0,.19-.61.94.94,0,0,0-.2-.62.68.68,0,0,0-.54-.23h-.82Z" transform="translate(-12.66 -11.21)"/><path class="cls-3" d="M58.24,61H56.73v1.52h1.76V63h-2.3V58.7h2.27v.46H56.73v1.37h1.51Z" transform="translate(-12.66 -11.21)"/><path class="cls-3" d="M60.11,61.24h-.75V63h-.54V58.7H60A1.26,1.26,0,0,1,61,59a1.48,1.48,0,0,1,.15,1.64,1.07,1.07,0,0,1-.49.45l.82,1.81v0h-.57Zm-.75-.46H60a.7.7,0,0,0,.54-.22.83.83,0,0,0,.2-.58c0-.55-.25-.82-.75-.82h-.64Z" transform="translate(-12.66 -11.21)"/><path class="cls-3" d="M63.63,61.08H62.19V63h-.54V58.7h2.22v.46H62.19v1.46h1.44Z" transform="translate(-12.66 -11.21)"/><path class="cls-3" d="M67,61.21a2.1,2.1,0,0,1-.37,1.34,1.26,1.26,0,0,1-1.06.47,1.3,1.3,0,0,1-1-.45,2.08,2.08,0,0,1-.4-1.3v-.8a2.14,2.14,0,0,1,.38-1.34,1.26,1.26,0,0,1,1.06-.49,1.28,1.28,0,0,1,1,.47A2.05,2.05,0,0,1,67,60.43Zm-.53-.75a1.92,1.92,0,0,0-.22-1,.79.79,0,0,0-.68-.33.76.76,0,0,0-.67.34,1.75,1.75,0,0,0-.23,1v.77a1.79,1.79,0,0,0,.22,1,.78.78,0,0,0,.68.35.76.76,0,0,0,.67-.32,1.75,1.75,0,0,0,.23-1Z" transform="translate(-12.66 -11.21)"/><path class="cls-3" d="M68.72,61.24H68V63h-.54V58.7h1.19a1.32,1.32,0,0,1,1.1,2,1.12,1.12,0,0,1-.49.45l.82,1.81v0h-.57ZM68,60.78h.65a.67.67,0,0,0,.53-.22.79.79,0,0,0,.21-.58c0-.55-.25-.82-.75-.82H68Z" transform="translate(-12.66 -11.21)"/><path class="cls-3" d="M71,58.7l1.11,3.48,1.12-3.48h.69V63h-.54V61.3l0-1.66L72.27,63h-.42l-1.11-3.32.05,1.65V63h-.53V58.7Z" transform="translate(-12.66 -11.21)"/><path class="cls-3" d="M76.43,61.85H75L74.65,63H74.1l1.38-4.27h.46L77.31,63h-.55Zm-1.3-.46h1.16l-.58-1.94Z" transform="translate(-12.66 -11.21)"/><path class="cls-3" d="M80.33,63h-.54l-1.71-3.29V63h-.54V58.7h.54L79.79,62V58.7h.54Z" transform="translate(-12.66 -11.21)"/><path class="cls-3" d="M83.58,61.61a1.62,1.62,0,0,1-.39,1,1.31,1.31,0,0,1-1,.36,1.23,1.23,0,0,1-1-.48,2.14,2.14,0,0,1-.38-1.33v-.77a2.07,2.07,0,0,1,.39-1.32,1.29,1.29,0,0,1,1.06-.48,1.24,1.24,0,0,1,1,.37,1.66,1.66,0,0,1,.37,1.06H83a1.26,1.26,0,0,0-.22-.75.71.71,0,0,0-.56-.22.79.79,0,0,0-.67.34,1.74,1.74,0,0,0-.23,1v.79a1.92,1.92,0,0,0,.21,1,.71.71,0,0,0,.64.34.75.75,0,0,0,.6-.2,1.27,1.27,0,0,0,.23-.75Z" transform="translate(-12.66 -11.21)"/><path class="cls-3" d="M86,61H84.48v1.52h1.76V63H84V58.7h2.26v.46H84.48v1.37H86Z" transform="translate(-12.66 -11.21)"/><path class="cls-3" d="M90,59.16H88.85V63h-.54V59.16H87.19V58.7H90Z" transform="translate(-12.66 -11.21)"/><path class="cls-3" d="M92.29,61H90.78v1.52h1.76V63H90.25V58.7h2.26v.46H90.78v1.37h1.51Z" transform="translate(-12.66 -11.21)"/><path class="cls-3" d="M95.55,61.61a1.62,1.62,0,0,1-.39,1,1.31,1.31,0,0,1-1,.36,1.23,1.23,0,0,1-1-.48,2.14,2.14,0,0,1-.38-1.33v-.77a2.07,2.07,0,0,1,.39-1.32,1.29,1.29,0,0,1,1.06-.48,1.24,1.24,0,0,1,1,.37,1.66,1.66,0,0,1,.37,1.06H95a1.26,1.26,0,0,0-.22-.75.71.71,0,0,0-.56-.22.79.79,0,0,0-.67.34,1.74,1.74,0,0,0-.23,1v.79a1.92,1.92,0,0,0,.21,1,.71.71,0,0,0,.64.34.75.75,0,0,0,.6-.2,1.27,1.27,0,0,0,.23-.75Z" transform="translate(-12.66 -11.21)"/><path class="cls-3" d="M98.71,63h-.54V61H96.45v2h-.53V58.7h.53v1.83h1.72V58.7h.54Z" transform="translate(-12.66 -11.21)"/><path class="cls-3" d="M102.07,63h-.54l-1.71-3.29V63h-.54V58.7h.54l1.72,3.3V58.7h.53Z" transform="translate(-12.66 -11.21)"/><path class="cls-3" d="M105.42,61.21a2.1,2.1,0,0,1-.37,1.34A1.26,1.26,0,0,1,104,63a1.28,1.28,0,0,1-1-.45,2,2,0,0,1-.4-1.3v-.8a2.14,2.14,0,0,1,.38-1.34,1.24,1.24,0,0,1,1-.49,1.28,1.28,0,0,1,1,.47,2.06,2.06,0,0,1,.39,1.32Zm-.54-.75a1.82,1.82,0,0,0-.22-1,.77.77,0,0,0-.68-.33.79.79,0,0,0-.67.34,1.84,1.84,0,0,0-.23,1v.77a1.79,1.79,0,0,0,.23,1,.85.85,0,0,0,1.35,0,1.76,1.76,0,0,0,.22-1Z" transform="translate(-12.66 -11.21)"/><path class="cls-3" d="M106.43,62.51h1.68V63H105.9V58.7h.53Z" transform="translate(-12.66 -11.21)"/><path class="cls-3" d="M111,61.21a2.1,2.1,0,0,1-.38,1.34,1.24,1.24,0,0,1-1,.47,1.32,1.32,0,0,1-1-.45,2.07,2.07,0,0,1-.39-1.3v-.8a2.08,2.08,0,0,1,.38-1.34,1.24,1.24,0,0,1,1.05-.49,1.28,1.28,0,0,1,1,.47,2.12,2.12,0,0,1,.39,1.32Zm-.54-.75a1.82,1.82,0,0,0-.22-1,.79.79,0,0,0-.68-.33.77.77,0,0,0-.67.34,1.75,1.75,0,0,0-.23,1v.77a1.79,1.79,0,0,0,.23,1,.76.76,0,0,0,.68.35.74.74,0,0,0,.66-.32,1.75,1.75,0,0,0,.23-1Z" transform="translate(-12.66 -11.21)"/><path class="cls-3" d="M114.12,62.44l-.09.11a1.47,1.47,0,0,1-1.19.47,1.35,1.35,0,0,1-1.08-.45,2,2,0,0,1-.41-1.3v-.84a2.1,2.1,0,0,1,.36-1.34,1.3,1.3,0,0,1,1.08-.45,1.29,1.29,0,0,1,.95.34,1.41,1.41,0,0,1,.38,1h-.54a1,1,0,0,0-.22-.62.69.69,0,0,0-.57-.23.76.76,0,0,0-.67.3,1.69,1.69,0,0,0-.23,1v.87a1.72,1.72,0,0,0,.25,1,.81.81,0,0,0,.71.34.92.92,0,0,0,.65-.21l.08-.07v-1h-.78v-.46h1.32Z" transform="translate(-12.66 -11.21)"/><path class="cls-3" d="M115.75,60.84l.88-2.14h.6L116,61.37V63h-.54v-1.6l-1.21-2.67h.61Z" transform="translate(-12.66 -11.21)"/><polygon class="cls-1" points="119.11 8.07 120.79 5.11 126.51 5 127.84 7.33 123.82 11.73 119.11 8.07"/><polygon class="cls-1" points="119.07 3.66 120.38 1.36 124.84 1.27 125.89 3.09 122.75 6.52 119.07 3.66"/><g class="cls-4"><polygon class="cls-3" points="127.23 7.03 127.23 5.22 123.65 0.41 120.06 5.22 120.06 7.03 123.65 2.52 127.23 7.03"/></g><g class="cls-5"><polygon class="cls-3" points="126.4 10.28 126.4 8.89 123.65 5.19 120.89 8.89 120.89 10.28 123.65 6.81 126.4 10.28"/></g></svg>