<svg xmlns="http://www.w3.org/2000/svg" viewBox="0 0 54.65 38.84"><defs><style>.cls-1{fill:#7981ac;}</style></defs><title>Oceanit_logo_color [Converted]</title><path class="cls-1" d="M323.23,362.69A37.3,37.3,0,0,0,305.38,365a36.35,36.35,0,0,1,15.07-1.51c15.23,1.64,25.94,12.14,23.94,23.45-1.08,6.13-5.67,11.23-12.07,14.36,8.14-2.8,14.17-8.41,15.41-15.38C349.71,374.78,338.74,364.38,323.23,362.69Z" transform="translate(-293.31 -362.46)"/><path class="cls-1" d="M295.58,385.09c.24-7.31,9.15-13.36,20.58-14.46-8.09,2.06-13.91,7-14.11,12.85-.26,7.67,9.34,14.27,21.48,13.9A26.9,26.9,0,0,0,335,394.17a22,22,0,0,1-11.21-2.23c-7.68-3.69-11.5-10.52-8.53-15.25s11.61-5.59,19.29-1.89a22,22,0,0,1,4.52,2.87c-2.28-3.56-6.29-6.63-11.24-8.67a34.59,34.59,0,0,0-21-.37c-11.92,3.69-16.84,13.3-11,21.45,2.57,3.58,6.81,6.29,11.76,7.88C300.23,395.46,295.39,390.64,295.58,385.09Z" transform="translate(-293.31 -362.46)"/><path class="cls-1" d="M212.11,355" transform="translate(-293.31 -362.46)"/><path class="cls-1" d="M430,355" transform="translate(-293.31 -362.46)"/><path class="cls-1" d="M212.11,453.5" transform="translate(-293.31 -362.46)"/></svg>