<svg xmlns="http://www.w3.org/2000/svg" viewBox="0 0 263.39 38.84"><defs><style>.cls-1{fill:#7981ac;}.cls-2{fill:#283986;}</style></defs><title>oceanit_logo_color_horizontal</title><path class="cls-1" d="M323.23,364.46a37.3,37.3,0,0,0-17.85,2.31,36.18,36.18,0,0,1,15.07-1.52c15.23,1.64,25.94,12.14,23.94,23.46-1.08,6.12-5.67,11.22-12.07,14.36,8.14-2.81,14.17-8.41,15.41-15.39C349.71,376.55,338.74,366.15,323.23,364.46Z" transform="translate(-293.31 -364.23)"/><path class="cls-1" d="M295.58,386.86c.24-7.31,9.15-13.37,20.58-14.46-8.09,2.05-13.91,7-14.11,12.85-.26,7.67,9.34,14.26,21.48,13.9A27,27,0,0,0,335,395.94a22.22,22.22,0,0,1-11.21-2.23c-7.68-3.7-11.5-10.52-8.53-15.26s11.61-5.58,19.29-1.89a21.58,21.58,0,0,1,4.52,2.88c-2.28-3.57-6.29-6.63-11.24-8.67a34.59,34.59,0,0,0-21-.38c-11.92,3.7-16.84,13.3-11,21.45,2.57,3.59,6.81,6.29,11.76,7.88C300.23,397.23,295.39,392.4,295.58,386.86Z" transform="translate(-293.31 -364.23)"/><polygon class="cls-2" points="242.88 6.26 233.24 6.26 231.68 12.3 241.32 12.3 242.88 6.26"/><path class="cls-2" d="M394,378.43c-.6-.9-1.83-1.48-3.68-1.73a29.23,29.23,0,0,0-4.29-.26H374.59a32.51,32.51,0,0,0-4.68.26,7.93,7.93,0,0,0-4.38,1.78,8.33,8.33,0,0,0-2.3,4.23l-2,7.82c-.49,1.92-.46,3.34.11,4.26s1.72,1.52,3.45,1.8a34.4,34.4,0,0,0,4.56.22h11.44a35.86,35.86,0,0,0,4.62-.22,7.14,7.14,0,0,0,6.74-6.06l2-7.82c.5-1.95.45-3.37-.16-4.28M384,384.5l-1.1,4.29a2.23,2.23,0,0,1-.38.89c-.24.25-1.17.37-2.79.37h-7.39a1.93,1.93,0,0,1-1.07-.26c-.13-.14-.13-.47,0-1l1.11-4.29a1.7,1.7,0,0,1,1.73-1.3h9.35C384.05,383.34,384.23,383.77,384,384.5Z" transform="translate(-293.31 -364.23)"/><path class="cls-2" d="M404.68,390.05c-.56-.11-.74-.53-.55-1.26l1.1-4.29a1.61,1.61,0,0,1,1.26-1.3h15.62l1.74-6.76H407.27a28.46,28.46,0,0,0-4.83.32,7.73,7.73,0,0,0-4.24,1.81,8.48,8.48,0,0,0-2.19,4.14l-2,7.82c-.48,1.88-.47,3.28,0,4.2s1.61,1.53,3.31,1.81a31,31,0,0,0,4.68.27h16.58l1.74-6.76H404.68Z" transform="translate(-293.31 -364.23)"/><path class="cls-2" d="M443,388.78c2.88,0,4.56,0,5,0a6.92,6.92,0,0,0,4-1.26,7.1,7.1,0,0,0,2-3.79l.26-1c.47-1.83.43-3.21-.11-4.14a4.51,4.51,0,0,0-3.38-1.82,28.63,28.63,0,0,0-4.64-.26h-8.86a27,27,0,0,0-7.53.79,7.47,7.47,0,0,0-5.49,5.43l-2,7.82c-.49,1.91-.48,3.33,0,4.25s1.63,1.53,3.36,1.81a30.52,30.52,0,0,0,4.62.27H449.5l1.62-6.31H434.8c-.82,0-1.38,0-1.68-.05-.78-.14-1-.7-.7-1.67H443m-9.83-5.15a1.17,1.17,0,0,1,1.27-.95H444c.58,0,.79.32.62.95a1.13,1.13,0,0,1-1.13,1H434C433.29,384.64,433,384.3,433.21,383.63Z" transform="translate(-293.31 -364.23)"/><path class="cls-2" d="M486.05,378.46c-.56-.92-1.72-1.51-3.48-1.76a29.28,29.28,0,0,0-4.45-.26H458.93l-1.6,6.22h16.32a5.14,5.14,0,0,1,1.89.21c.55.25.72.78.52,1.59H465.38c-2.46,0-4,0-4.58.05a8.45,8.45,0,0,0-4.23,1.08,7,7,0,0,0-2.21,4l-.25,1c-.49,1.9-.46,3.3.09,4.21s1.71,1.52,3.48,1.79a33.74,33.74,0,0,0,4.51.22h20.33l3.63-14.1c.49-1.91.46-3.33-.1-4.25m-11.57,12.13h-10c-.58,0-.79-.32-.62-1s.55-1,1.13-1h10Z" transform="translate(-293.31 -364.23)"/><path class="cls-2" d="M516.51,376.76a25.23,25.23,0,0,0-4.84-.32h-7.82a5.33,5.33,0,0,0-4.07,1.34l.35-1.34h-9.65l-5.24,20.37h9.64l3.17-12.29a1.62,1.62,0,0,1,1.26-1.32H509c.58.14.77.58.58,1.32l-3.16,12.29h9.64l3.63-14.1Q521,377.55,516.51,376.76Z" transform="translate(-293.31 -364.23)"/><polygon class="cls-2" points="231.21 14.14 226.46 32.58 236.1 32.58 240.85 14.14 231.21 14.14"/><path class="cls-2" d="M545.85,383.2h4.87l1.74-6.76h-4.87l1.53-5.95h-9.64l-5.16,20c-.48,1.88-.46,3.29.07,4.21s1.65,1.53,3.38,1.81a30.2,30.2,0,0,0,4.58.27h7.12l1.74-6.76h-5.65a2.08,2.08,0,0,1-1.09-.26c-.15-.14-.16-.47,0-1Z" transform="translate(-293.31 -364.23)"/><path class="cls-2" d="M555.44,393a.68.68,0,0,0-.4-.64,2,2,0,0,0-.8-.14h-1.09V395h.64v-1.15h.38l.54,1.15h.73l-.62-1.26a.78.78,0,0,0,.62-.77m-.89.39a1.12,1.12,0,0,1-.48.08h-.27v-.86h.27a1,1,0,0,1,.5.1.33.33,0,0,1,.18.32A.38.38,0,0,1,554.55,393.38Z" transform="translate(-293.31 -364.23)"/><path class="cls-2" d="M556.19,392.07a2.57,2.57,0,0,0-1.07-.76,2.43,2.43,0,0,0-.94-.21,2.51,2.51,0,0,0-1.63.59,2.44,2.44,0,0,0-.88,2,2.5,2.5,0,0,0,.73,1.77,2.38,2.38,0,0,0,1.78.77,2.4,2.4,0,0,0,1.82-.8,2.46,2.46,0,0,0,.7-1.74,2.53,2.53,0,0,0-.51-1.6m-.51,3.09a2.11,2.11,0,0,1-1.54.64,2.08,2.08,0,0,1-1.36-.54,2,2,0,0,1-.73-1.6,2,2,0,0,1,.64-1.52,2.09,2.09,0,0,1,1.51-.63,2,2,0,0,1,1.5.63,2.11,2.11,0,0,1,.63,1.55A2,2,0,0,1,555.68,395.16Z" transform="translate(-293.31 -364.23)"/><path class="cls-1" d="M212.11,355" transform="translate(-293.31 -364.23)"/><path class="cls-1" d="M427,383.65" transform="translate(-293.31 -364.23)"/><path class="cls-1" d="M558.16,383.65" transform="translate(-293.31 -364.23)"/><path class="cls-1" d="M212.11,453.5" transform="translate(-293.31 -364.23)"/></svg>